<svg xmlns="http://www.w3.org/2000/svg" viewBox="0 0 35.19 42.7"><defs><style>.cls-1{fill:#111;}.cls-2{fill:#fff;}</style></defs><title>hhh_logo_1</title><g id="レイヤー_2" data-name="レイヤー 2"><g id="レイヤー_1-2" data-name="レイヤー 1"><path class="cls-1" d="M.78,39.63v1h.28v-1h.66V42.1H1.06v-1H.78v1H.12V39.63Z"/><path class="cls-1" d="M2.55,39.63V40H2v-.4Zm0,.57V42.1H2V40.21Z"/><path class="cls-1" d="M2.79,40.21h.59v.21a.29.29,0,0,1,.33-.21h.12c.34,0,.39.06.41.49v1c0,.29-.08.4-.33.41H3.77c-.22,0-.25,0-.39-.21v.8H2.79Zm.59,1.24c0,.15,0,.21.13.21s.13-.07.13-.21v-.58c0-.15,0-.21-.13-.21s-.13.07-.13.21Z"/><path class="cls-1" d="M4.44,40.21H5v.21a.29.29,0,0,1,.33-.21h.12c.34,0,.39.06.41.49v1c0,.29-.08.4-.33.41H5.42c-.22,0-.25,0-.39-.21v.8H4.44ZM5,41.44c0,.15,0,.21.13.21s.13-.07.13-.21v-.58c0-.15,0-.21-.13-.21s-.13.07-.13.21Z"/><path class="cls-1" d="M6.69,39.63V40H6.1v-.4Zm0,.57V42.1H6.1V40.21Z"/><path class="cls-1" d="M7.5,41.39v.1c0,.13,0,.16.21.16h.64v.45h-1c-.38,0-.45-.07-.45-.4V40.59c0-.31.09-.38.48-.38h.46c.41,0,.51.08.49.41v.78ZM7.76,41v-.17c0-.13,0-.21-.13-.21s-.13.08-.13.21V41Z"/><path class="cls-1" d="M10.12,39.63v1h.28v-1h.66V42.1H10.4v-1h-.28v1H9.46V39.63Z"/><path class="cls-1" d="M12.74,42.1h-.59v-.21c-.08.17-.15.22-.33.21h-.12c-.34,0-.39-.06-.41-.49v-1c0-.29.08-.4.33-.41h.13c.22,0,.25,0,.4.21v-.2h.59Zm-.59-1.25c0-.15,0-.21-.13-.21s-.13.07-.13.21v.58c0,.15,0,.21.13.21s.13-.07.13-.21Z"/><path class="cls-1" d="M13.91,40.65h-.2c-.14,0-.17,0-.17.24v.53c0,.19,0,.23.18.23h.18v.45h-.54c-.21,0-.3,0-.37-.12a.35.35,0,0,1,0-.2s0-.07,0-.13v-1c0-.35.06-.42.42-.42h.53Z"/><path class="cls-1" d="M14.67,39.63v1.3h.07c.15,0,.19-.07.19-.31v-.41h.59v.39c0,.32-.1.44-.44.52.31.05.44.19.44.44v.16a.9.9,0,0,0,0,.38H15a1.18,1.18,0,0,1,0-.36v-.09c0-.16-.05-.23-.17-.24h-.09v.69h-.59V39.63Z"/><path class="cls-1" d="M16.31,41.39v.1c0,.13,0,.16.21.16h.64v.45h-1c-.38,0-.45-.07-.45-.4V40.59c0-.31.09-.38.48-.38h.46c.41,0,.51.08.49.41v.78Zm.26-.36v-.17c0-.13,0-.21-.13-.21s-.13.08-.13.21V41Z"/><path class="cls-1" d="M18,40.21v.24c.11-.19.21-.25.38-.25l.1,0,0,.64a2.53,2.53,0,0,0-.44-.17V42.1h-.59V40.21Z"/><path class="cls-1" d="M20.12,39.63v1h.28v-1h.66V42.1H20.4v-1h-.28v1h-.66V39.63Z"/><path class="cls-1" d="M22.74,42.1h-.59v-.21c-.08.17-.15.22-.33.21h-.12c-.34,0-.39-.06-.41-.49v-1c0-.29.08-.4.33-.41h.13c.22,0,.25,0,.4.21v-.2h.59Zm-.59-1.25c0-.15,0-.21-.13-.21s-.13.07-.13.21v.58c0,.15,0,.21.13.21s.13-.07.13-.21Z"/><path class="cls-1" d="M23.55,40.21v.24c.11-.19.21-.25.38-.25l.1,0,0,.64a2.53,2.53,0,0,0-.44-.17V42.1H23V40.21Z"/><path class="cls-1" d="M24.78,40.21v.2c.1-.17.19-.21.42-.21s.38.06.44.23A.37.37,0,0,1,26,40.2c.36,0,.45.08.45.4v1.5h-.59V40.84c0-.13-.05-.2-.14-.2s-.13.07-.13.21V42.1H25V40.85c0-.14,0-.21-.14-.21s-.13.07-.13.22V42.1h-.59V40.21Z"/><path class="cls-1" d="M27.61,40.21c.51,0,.57.06.56.53v.84c0,.46-.05.52-.56.52h-.33c-.51,0-.58-.06-.56-.52v-.84c0-.46.05-.52.56-.53Zm0,.65c0-.14,0-.2-.14-.2s-.13.06-.13.2v.59c0,.14,0,.2.14.2s.13-.07.13-.2Z"/><path class="cls-1" d="M29,40.21v.2a.4.4,0,0,1,.42-.21c.23,0,.35,0,.4.16s0,.07,0,.49V42.1h-.59V40.85c0-.14,0-.21-.14-.21s-.13.07-.13.22V42.1h-.59V40.21Z"/><path class="cls-1" d="M30.61,40.92c0,.51,0,.53.13.74.12-.21.13-.23.13-.74v-.72h.59v.69a2.09,2.09,0,0,1-.08.69,1.13,1.13,0,0,1-.35.52v.61h-.57V42.1a1.16,1.16,0,0,1-.37-.59,2.53,2.53,0,0,1-.06-.61v-.69h.59Z"/><polygon class="cls-1" points="30.93 7.38 30.93 7.38 28.69 5.09 28.69 5.09 28.69 5.09 28.69 17.15 25.71 18.15 25.71 11.1 21.02 5.45 21.02 5.45 21.01 5.45 18.96 3.4 18.96 3.4 18.96 3.4 18.96 15.45 16.23 16.42 16.23 9.41 11.57 3.79 9.48 1.7 9.48 1.7 9.48 1.7 9.48 13.75 6.5 14.76 6.5 7.71 2.24 2.29 0 0 0 27.57 4.4 33.16 4.4 33.16 6.5 35.28 6.5 22.21 9.48 21.21 9.48 29.26 14.18 34.92 16.23 36.97 16.23 23.91 18.96 22.94 18.96 30.96 23.66 36.62 25.71 38.67 25.71 25.61 28.69 24.6 28.69 32.66 33.14 38.32 35.19 40.37 35.19 12.8 30.93 7.38"/><polygon class="cls-2" points="23.79 19.23 23.25 19.41 23.25 18.84 23.25 9.2 19.37 4.53 19.37 15.45 19.37 15.74 19.1 15.84 14.31 17.53 13.77 17.73 13.77 17.15 13.77 7.5 9.89 2.83 9.89 13.75 9.89 14.05 9.61 14.14 4.58 15.84 4.04 16.02 4.04 15.45 4.04 5.8 0.41 1.19 0.41 27.43 4.04 32.04 4.04 20.16 4.04 19.87 4.32 19.77 9.35 18.07 9.89 17.89 9.89 18.46 9.89 29.12 13.77 33.78 13.77 21.86 13.77 21.57 14.04 21.47 18.83 19.77 19.37 19.58 19.37 20.16 19.37 30.81 23.25 35.48 23.25 23.56 23.25 23.26 23.52 23.17 28.56 21.47 29.1 21.29 29.1 21.86 29.1 32.52 32.73 37.13 32.73 10.89 29.1 6.28 29.1 17.15 29.1 17.44 28.82 17.54 23.79 19.23"/></g></g></svg>